<?xml version="1.0" standalone="no"?>
<!DOCTYPE svg PUBLIC "-//W3C//DTD SVG 20010904//EN"
 "http://www.w3.org/TR/2001/REC-SVG-20010904/DTD/svg10.dtd">
<svg version="1.0" xmlns="http://www.w3.org/2000/svg"
 width="24.000000pt" height="24.000000pt" viewBox="0 0 24.000000 24.000000"
 preserveAspectRatio="xMidYMid meet">

<g transform="translate(0.000000,24.000000) scale(0.100000,-0.100000)"
fill="#000000" stroke="none">
<path d="M151 226 c-18 -6 -39 -20 -47 -31 -8 -10 -14 -15 -14 -10 0 12 -40
-30 -63 -65 -9 -15 -15 -43 -15 -70 1 -25 3 -38 5 -29 2 9 17 19 33 23 16 3
38 14 49 25 11 11 29 25 41 31 12 7 19 18 16 26 -3 8 1 14 9 14 15 0 52 60 38
60 -5 0 -2 4 6 9 15 10 7 31 -12 30 -7 0 -27 -6 -46 -13z m-26 -61 c-11 -8
-38 -32 -59 -53 -32 -29 -35 -31 -18 -8 21 28 80 76 91 76 3 0 -3 -7 -14 -15z"/>
<path d="M215 78 c6 -16 1 -18 -43 -18 -28 0 -53 -3 -55 -7 -7 -11 96 -3 108
8 5 6 4 14 -4 22 -10 10 -11 9 -6 -5z"/>
<path d="M43 3 c9 -2 23 -2 30 0 6 3 -1 5 -18 5 -16 0 -22 -2 -12 -5z"/>
</g>
</svg>
